<?xml version="1.0" encoding="UTF-8" standalone="no"?>
<svg
   version="1.0"
   width="180.000000pt"
   height="180.000000pt"
   viewBox="0 0 180.000000 180.000000"
   preserveAspectRatio="xMidYMid meet"
   id="svg14"
   sodipodi:docname="coupang_with_white_background.svg"
   inkscape:version="1.2.2 (b0a8486541, 2022-12-01)"
   xmlns:inkscape="http://www.inkscape.org/namespaces/inkscape"
   xmlns:sodipodi="http://sodipodi.sourceforge.net/DTD/sodipodi-0.dtd"
   xmlns="http://www.w3.org/2000/svg"
   xmlns:svg="http://www.w3.org/2000/svg">
  <rect
     x="15.626172"
     y="74.69236"
     width="147.37675"
     height="36.396908"
     fill="#ffffff"
     id="rect257"
     style="stroke-width:1.49499" />
  <defs
     id="defs18" />
  <sodipodi:namedview
     id="namedview16"
     pagecolor="#ffffff"
     bordercolor="#000000"
     borderopacity="0.25"
     inkscape:showpageshadow="2"
     inkscape:pageopacity="0.0"
     inkscape:pagecheckerboard="0"
     inkscape:deskcolor="#d1d1d1"
     inkscape:document-units="pt"
     showgrid="false"
     inkscape:zoom="3.0041667"
     inkscape:cx="117.00416"
     inkscape:cy="120.66574"
     inkscape:window-width="1720"
     inkscape:window-height="1375"
     inkscape:window-x="1720"
     inkscape:window-y="33"
     inkscape:window-maximized="0"
     inkscape:current-layer="svg14" />
  <g
     transform="translate(0.000000,180.000000) scale(0.100000,-0.100000)"
     fill="#000000"
     stroke="none"
     id="g12">
    <g
       id="g188"
       style="fill:#ff0000">
      <g
         id="g183"
         style="fill:#ff0000">
        <g
           id="g129"
           style="fill:#ff0000">
          <path
             d="M844 1735 l-49 -56 -58 41 c-31 22 -61 40 -65 40 -5 0 -21 -27 -37 -61 -16 -33 -32 -62 -36 -65 -4 -2 -38 7 -77 20 l-70 24 -11 -61 c-19 -100 -11 -92 -97 -89 l-76 4 4 -76 c5 -71 3 -77 -16 -81 -12 -2 -47 -9 -78 -15 l-57 -11 25 -70 c14 -38 23 -73 20 -77 -2 -4 -32 -21 -65 -37 -34 -16 -61 -31 -61 -34 0 -3 18 -33 40 -66 l40 -60 -58 -52 -57 -52 57 -51 58 -51 -40 -59 c-22 -32 -40 -63 -40 -68 0 -4 27 -21 61 -37 33 -16 62 -32 65 -36 2 -4 -7 -38 -20 -77 l-24 -70 69 -13 c39 -7 73 -17 76 -22 3 -6 5 -42 4 -80 l-2 -70 75 5 c71 5 77 4 81 -16 2 -12 9 -47 15 -78 l11 -57 66 24 c36 14 69 25 74 25 5 0 24 -29 41 -65 18 -36 35 -65 38 -65 3 0 32 18 65 40 l60 40 53 -58 52 -57 53 57 52 58 60 -40 c33 -22 62 -40 65 -40 4 0 19 27 35 61 16 33 33 63 37 65 4 3 39 -6 77 -20 l70 -25 11 57 c6 31 13 66 15 78 4 20 10 21 81 16 l76 -5 -4 77 c-4 85 -11 78 89 97 l61 11 -24 70 c-13 39 -22 73 -20 77 3 4 32 20 65 36 34 16 61 33 61 37 0 5 -18 36 -40 68 l-40 59 58 51 57 51 -57 52 -58 52 40 60 c22 33 40 62 40 65 0 3 -29 20 -65 38 -36 17 -65 35 -65 39 0 5 11 38 24 75 l24 67 -57 11 c-31 6 -65 13 -77 15 -20 4 -21 10 -16 79 l5 75 -79 3 -79 3 -13 72 -14 71 -70 -24 c-39 -13 -73 -22 -77 -20 -4 3 -20 32 -36 65 -16 34 -33 61 -39 61 -6 0 -36 -19 -66 -41 l-55 -40 -50 56 c-27 30 -53 55 -56 55 -3 0 -28 -25 -55 -55z m-499 -735 c35 -29 0 -62 -37 -36 -38 27 -68 2 -68 -57 0 -68 36 -99 73 -63 13 13 17 13 33 0 18 -14 18 -15 -5 -34 -31 -27 -90 -26 -119 0 -28 26 -36 59 -29 118 7 63 44 96 99 89 21 -3 45 -11 53 -17z m172 5 c51 -36 55 -156 6 -195 -37 -29 -93 -27 -124 6 -20 22 -24 36 -24 91 0 59 3 67 28 89 32 28 82 32 114 9z m115 -78 c2 -63 7 -82 21 -91 12 -8 22 -8 35 0 13 9 18 28 20 92 2 61 6 82 18 86 29 11 34 -5 34 -115 0 -102 -1 -109 -20 -109 -11 0 -20 5 -20 12 0 9 -3 9 -12 0 -21 -21 -77 -14 -103 13 -23 22 -25 32 -25 108 0 46 3 86 6 89 3 3 14 4 24 1 17 -4 20 -16 22 -86z m204 82 c4 -8 9 -8 17 0 19 19 67 12 92 -14 22 -21 25 -33 25 -90 0 -57 -3 -69 -26 -92 -21 -21 -32 -25 -65 -20 l-39 5 0 -49 c0 -46 -2 -49 -25 -49 l-25 0 0 154 c0 151 2 162 32 165 4 1 10 -4 14 -10z m299 -13 c28 -28 37 -70 33 -146 l-3 -55 -63 -2 c-55 -2 -66 0 -88 22 -44 44 -24 117 35 130 17 3 39 1 50 -5 17 -9 21 -8 21 4 0 25 -37 39 -72 27 -35 -13 -35 -13 -40 13 -6 39 91 48 127 12z m99 15 c4 -5 19 -4 36 2 25 9 36 9 58 -3 41 -24 52 -56 50 -140 -3 -69 -5 -75 -25 -78 -22 -3 -23 -1 -23 75 0 84 -9 103 -47 103 -32 0 -43 -28 -43 -109 0 -64 -2 -71 -20 -71 -19 0 -20 7 -20 115 0 93 3 115 14 115 8 0 17 -4 20 -9z m316 -2 c8 0 24 1 35 3 12 2 21 -3 23 -14 2 -11 -3 -18 -12 -18 -12 0 -16 -10 -16 -37 0 -48 -32 -83 -76 -83 -18 0 -36 -4 -39 -10 -4 -6 8 -10 29 -10 40 0 87 -16 98 -33 25 -39 -15 -128 -44 -99 -9 9 -8 17 1 36 20 37 7 46 -70 46 -78 0 -93 12 -65 55 15 23 15 28 1 47 -23 34 -18 66 15 100 27 26 35 29 68 24 20 -4 44 -7 52 -7z"
             id="path2"
             style="fill:#ff0000" />
        </g>
      </g>
    </g>
    <path
       d="M426 955 c-11 -29 -7 -90 7 -110 23 -31 65 -13 73 32 10 54 -5 87 -42 91 -22 2 -33 -2 -38 -13z"
       id="path4"
       style="fill:#ff0000" />
    <path
       d="M855 967 c-23 -17 -18 -115 8 -131 33 -21 52 4 52 69 0 50 -3 59 -22 66 -13 5 -27 3 -38 -4z"
       id="path6"
       style="fill:#ff0000" />
    <path
       d="M1052 898 c-7 -7 -12 -22 -12 -35 0 -27 42 -42 65 -23 28 23 11 70 -25 70 -9 0 -21 -5 -28 -12z"
       id="path8"
       style="fill:#ff0000" />
    <path
       d="M1465 967 c-13 -10 -16 -21 -11 -41 6 -24 11 -27 39 -24 25 2 33 8 35 27 3 15 -3 30 -14 38 -22 16 -26 16 -49 0z"
       id="path10"
       style="fill:#ff0000" />
  </g>
  <g
     inkscape:groupmode="layer"
     id="layer1"
     inkscape:label="text-bg"
     style="fill:#ffffff" />
</svg>
