<?xml version="1.0" encoding="UTF-8" standalone="no"?>
<svg
   version="1.0"
   width="96.000000pt"
   height="96.000000pt"
   viewBox="0 0 96.000000 96.000000"
   preserveAspectRatio="xMidYMid meet"
   id="svg6"
   sodipodi:docname="kakaomap.svg"
   inkscape:export-filename="kakaomap.png"
   inkscape:export-xdpi="96"
   inkscape:export-ydpi="96"
   inkscape:version="1.2.2 (b0a8486541, 2022-12-01)"
   xmlns:inkscape="http://www.inkscape.org/namespaces/inkscape"
   xmlns:sodipodi="http://sodipodi.sourceforge.net/DTD/sodipodi-0.dtd"
   xmlns="http://www.w3.org/2000/svg"
   xmlns:svg="http://www.w3.org/2000/svg">
  <defs
     id="defs10" />
  <sodipodi:namedview
     id="namedview8"
     pagecolor="#ffffff"
     bordercolor="#000000"
     borderopacity="0.25"
     inkscape:showpageshadow="2"
     inkscape:pageopacity="0.0"
     inkscape:pagecheckerboard="0"
     inkscape:deskcolor="#d1d1d1"
     inkscape:document-units="pt"
     showgrid="false"
     inkscape:zoom="5.6328125"
     inkscape:cx="42.785021"
     inkscape:cy="64.355062"
     inkscape:window-width="1720"
     inkscape:window-height="1375"
     inkscape:window-x="1720"
     inkscape:window-y="33"
     inkscape:window-maximized="0"
     inkscape:current-layer="svg6" />
  <g
     id="g2887"
     transform="matrix(1,0,0,1.0068448,0,-0.65302291)">
    <rect
       style="fill:#f7f700;fill-opacity:1;stroke-width:0.75"
       id="rect906"
       width="94.224823"
       height="93.987251"
       x="0.99269676"
       y="1.4175136" />
    <g
       transform="matrix(0.1,0,0,-0.1,0,96)"
       fill="#000000"
       stroke="none"
       id="g4"
       style="fill:#3b3bff;fill-opacity:1">
      <path
         d="M 361,814 C 277,772 220,677 220,578 c 0,-46 38,-123 96,-193 61,-75 107,-152 130,-216 24,-64 44,-64 68,0 23,64 69,141 130,216 58,70 96,147 96,193 0,149 -112,262 -260,262 -51,0 -78,-6 -119,-26 z M 515,666 c 76,-32 76,-130 -1,-162 -29,-12 -39,-12 -68,0 -75,31 -77,129 -3,161 40,18 32,17 72,1 z"
         id="path2"
         style="fill:#3b3bff;fill-opacity:1" />
    </g>
  </g>
</svg>
